

Release info:

General
Format                                   : Matroska
Format version                           : Version 2
File size                                : 555 MiB
Duration                                 : 1h 58mn
Overall bit rate                         : 653 Kbps

Video
ID                                       : 1
Format                                   : AVC
Format/Info                              : Advanced Video Codec
Format profile                           : High@L3.0
Format settings, CABAC                   : Yes
Format settings, ReFrames                : 4 frames
Muxing mode                              : Header stripping
Codec ID                                 : V_MPEG4/ISO/AVC
Duration                                 : 1h 58mn
Bit rate                                 : 523 Kbps
Width                                    : 720 pixels
Height                                   : 298 pixels
Display aspect ratio                     : 2.40:1
Frame rate mode                          : Constant
Frame rate                               : 29.970 fps
Color space                              : YUV
Chroma subsampling                       : 4:2:0
Bit depth                                : 8 bits
Scan type                                : Progressive
Bits/(Pixel*Frame)                       : 0.081
Stream size                              : 435 MiB (78%)
Language                                 : English
Default                                  : Yes
Forced                                   : No

Audio
ID                                       : 2
Format                                   : MPEG Audio
Format version                           : Version 1
Format profile                           : Layer 3
Mode                                     : Joint stereo
Mode extension                           : MS Stereo
Muxing mode                              : Header stripping
Codec ID                                 : A_MPEG/L3
Codec ID/Hint                            : MP3
Duration                                 : 1h 58mn
Bit rate mode                            : Constant
Bit rate                                 : 128 Kbps
Channel(s)                               : 2 channels
Sampling rate                            : 44.1 KHz
Compression mode                         : Lossy
Stream size                              : 109 MiB (20%)
Language                                 : English
Default                                  : Yes
Forced                                   : No



Source:
credit to original movie ripper VoXHD (Thanks)

IMDB Info:

A dramatization of the 1980 joint CIA-Canadian secret operation to extract six fugitive American diplomatic personnel out of revolutionary Iran.

Director: Ben Affleck
Writers: Chris Terrio (screenplay), Joshuah Bearman (article)
Stars: Ben Affleck, Bryan Cranston and John Goodman 

Genres: Drama | History | Thriller
 
http://www.imdb.com/title/tt1024648/

Screen Shot:
 
http://www.shotpix.com/images/07887007910761795227.png 
http://www.shotpix.com/images/97980662150045952711.png 
http://www.shotpix.com/images/66926910601784934304.png 
http://www.shotpix.com/images/29690691134754815410.png 
http://www.shotpix.com/images/16554809879572469858.png 
http://www.shotpix.com/images/51236073158078181696.png